<svg xmlns="http://www.w3.org/2000/svg" width="1225.33" height="238.45"><g data-name="Capa 2"><g data-name="Capa 1"><path d="M599.5 177.52a8.5 8.5 0 0 1-7.24-3.38v2.89h-6.75V146.4h7.11v7.37c0 2-.09 4-.09 4h.13c.93-1.33 3.15-3.06 6.88-3.06 6.3 0 10.3 4.92 10.3 11.36s-4 11.45-10.34 11.45zm-2-17.18c-3.06 0-5.15 2.31-5.15 5.68s2.09 5.68 5.15 5.68 5.1-2.31 5.1-5.68-2.04-5.68-5.1-5.68zM624.53 179.11c-1.6 3.91-3.37 6.31-7.1 6.31a15.92 15.92 0 0 1-6.08-1.07l1.42-5.24a9.54 9.54 0 0 0 2.61.58 1.89 1.89 0 0 0 2.14-1.42l.79-1.91-8.65-21.22h7.41l5 14.07 4.93-14.07h7.32zM651.82 183.73c-4.57 0-6.12-2-6.12-6.57v-7.81c0-3.2-1.47-3.64-2.71-3.64v-4.48c1.24 0 2.71-.45 2.71-3.6v-7.81c0-4.57 1.55-6.62 6.12-6.62h3.91v3.42h-1.51c-2.22 0-2.84.67-2.84 2.89v8.12c0 4-1.42 5.15-3.55 5.68v.31c2.13.54 3.55 1.73 3.55 5.73v8.12c0 2.22.62 2.84 2.84 2.84h1.51v3.42zM670.6 150.93c-2.35 0-2.62 1.73-2.62 3.37v.89h4.7v5.37H668V177h-7.15v-16.44H658v-5.37h2.79V154c0-5.33 2.53-8.17 8-8.17a20.82 20.82 0 0 1 4.66.58l-.35 4.93a8.25 8.25 0 0 0-2.5-.41zm7.9 1.68c-2.4 0-4-1.46-4-3.68s1.64-3.68 4-3.68 4 1.5 4 3.68-1.6 3.68-4 3.68zM675 177v-21.86h7.1V177zM701.22 177v-11.38c0-2.89-.44-5.06-3.37-5.06s-3.91 2.48-3.91 5.64V177h-7.1v-21.86h7.1v3.16h.06a7.08 7.08 0 0 1 6.35-3.55c6.34 0 8 4.08 8 9.36V177zM720.31 177.52a13.38 13.38 0 0 1-9.23-3.38l2.66-4.21a12 12 0 0 0 6.48 2.66c1.78 0 3-.45 3-1.87s-3.2-2.13-4-2.39c-3.64-.93-6.83-2.22-6.83-6.75 0-4.26 3.73-6.88 8.3-6.88a12.67 12.67 0 0 1 8.39 2.71l-2.31 4.17a10.7 10.7 0 0 0-5.5-2.13c-1.69 0-2.62.44-2.62 1.6s1.68 1.68 3.19 2.13c3.77 1.11 7.73 2.26 7.73 7.1.02 5.24-4.73 7.24-9.26 7.24zM759.15 177h-6.71l-4.26-13.41-4.3 13.41h-6.71L730 155.14h7.19l3.87 14 4.21-14h5.82l4.21 14 3.87-14h7.19zM790.17 167.79h-15.58c.31 3.16 2.71 4.58 5.59 4.58a12.34 12.34 0 0 0 6.57-2.09l2.8 3.68c-.71.54-3.6 3.56-10.39 3.56s-11.67-4.18-11.67-11.41 5.33-11.36 11.81-11.36 11 4.3 11 10.69c-.04 1.07-.13 2.35-.13 2.35zm-11-8.43a4.46 4.46 0 0 0-4.53 4.4h9a4.42 4.42 0 0 0-4.48-4.4zM815.16 167.79h-15.58c.31 3.16 2.71 4.58 5.59 4.58a12.34 12.34 0 0 0 6.57-2.09l2.8 3.68c-.71.54-3.6 3.56-10.39 3.56s-11.67-4.18-11.67-11.41 5.32-11.36 11.8-11.36 11 4.3 11 10.69c-.03 1.07-.12 2.35-.12 2.35zm-11-8.43a4.46 4.46 0 0 0-4.53 4.4h9a4.4 4.4 0 0 0-4.48-4.4zM826.74 160.56v7.86c0 1.91.14 3.24 2.31 3.24a6.6 6.6 0 0 0 2.13-.4l.36 5.55a19.46 19.46 0 0 1-5.06.71c-5.69 0-6.88-3.47-6.88-8.48v-8.48h-3.11v-5.37h3.11v-5.95h7.14v5.95h4.84v5.37zM593.34 120.55c-7.12 0-14.62-2.21-20-7.31l5.77-9.13c3.84 3.27 10.19 5.77 14 5.77s6.54-1 6.54-4-6.93-4.62-8.66-5.19c-7.88-2-14.81-4.81-14.81-14.62 0-9.23 8.08-14.91 18-14.91s15.48 3.66 18.17 5.87l-5 9c-2.69-2.12-8.08-4.62-11.92-4.62-3.66 0-5.68 1-5.68 3.47s3.66 3.65 6.93 4.61c8.17 2.4 16.73 4.91 16.73 15.39.03 11.34-10.26 15.67-20.07 15.67zM642.86 120.55c-13 0-25-8.85-25-24.62s12.21-24.71 25.2-24.71c12.11 0 17.59 5 17.59 5l-3.36 11.64a19.49 19.49 0 0 0-12.21-4.24c-6.54 0-11.74 4.52-11.74 12s4.72 12.21 11.93 12.21a18.74 18.74 0 0 0 12-4.62l3.65 11.64c-.46.41-5.46 5.7-18.06 5.7zM698.64 86.22H698a12.37 12.37 0 0 0-5.57-1.15c-7.6 0-9.52 7.11-9.52 13.36v21.06h-15.43v-47.4h15.39l-.1 6.73h.23c2.7-5.2 6.64-7.6 11.74-7.6a11 11 0 0 1 4.8.87zM727.78 120.55c-15 0-26.35-9.33-26.35-24.62s11.35-24.71 26.35-24.71S754 80.64 754 95.93s-11.22 24.62-26.22 24.62zm0-37.21C721 83.34 717 88.63 717 95.65S721 108 727.78 108s10.77-5.28 10.77-12.3-4.04-12.36-10.77-12.36zM761.92 119.49V53.14h15.38v66.35zM788.17 119.49V53.14h15.39v66.35zM844.71 120.55c-6.44 0-12.11-2.31-15.67-7.31h-.1l.1 6.25h-14.62V53.14h15.39v16c0 4.33-.19 8.76-.19 8.76h.29c2-2.89 6.82-6.64 14.9-6.64 13.66 0 22.31 10.67 22.31 24.62s-8.65 24.67-22.41 24.67zm-4.32-37.21c-6.64 0-11.16 5-11.16 12.31s4.52 12.3 11.16 12.3 11.06-5 11.06-12.3-4.45-12.31-11.06-12.31zM902.41 119.49l-.28-5c-2 2-5.87 6.06-13.56 6.06-8.37 0-17.22-4.52-17.22-15.1s9.72-14.13 18.47-14.52l11.92-.48v-1.06c0-5-3.56-7.59-9.71-7.59a30.25 30.25 0 0 0-14.52 4.2l-4-10a46.65 46.65 0 0 1 20.29-4.81c14.81 0 23.37 6.16 23.37 21.54v26.73zm-8.17-20.38c-4.71.19-7.5 2.21-7.5 5.77s3 5.86 7.21 5.86a9.45 9.45 0 0 0 7.89-4.32v-7.79zM957.8 86.22h-.67a12.38 12.38 0 0 0-5.58-1.15c-7.59 0-9.52 7.11-9.52 13.36v21.06h-15.38v-47.4H942l-.09 6.73h.19c2.69-5.2 6.63-7.6 11.73-7.6a11 11 0 0 1 4.81.87zM998.87 120.55c-7.12 0-14.62-2.21-20-7.31l5.76-9.13c3.85 3.27 10.2 5.77 14 5.77s6.54-1 6.54-4-6.92-4.62-8.65-5.19c-7.89-2-14.81-4.81-14.81-14.62 0-9.23 8.08-14.91 18-14.91s15.48 3.66 18.18 5.87l-5 9c-2.7-2.12-8.08-4.62-11.93-4.62-3.65 0-5.67 1-5.67 3.47s3.65 3.65 6.92 4.61c8.18 2.4 16.73 4.91 16.73 15.39.06 11.34-10.27 15.67-20.07 15.67zM1044 83.82v17c0 4.13.29 7 5 7a14.25 14.25 0 0 0 4.61-.87l.77 12a41.47 41.47 0 0 1-11 1.54c-12.31 0-14.9-7.5-14.9-18.37v-18.3h-6.74V72.18h6.74V59.3H1044v12.88h10.48v11.64zM1087.34 124c-3.46 8.46-7.31 13.66-15.39 13.66a34.58 34.58 0 0 1-13.17-2.31l3.07-11.35a20.9 20.9 0 0 0 5.68 1.25c1.73 0 3.36 0 4.61-3.07l1.73-4.14-18.75-46h16.06l10.82 30.53 10.68-30.48h15.86zM1113.78 119.49V53.14h15.39v66.35zM1186 99.49h-33.75c.67 6.83 5.86 9.91 12.11 9.91a26.78 26.78 0 0 0 14.24-4.52l6.05 8c-1.53 1.15-7.78 7.69-22.5 7.69s-25.29-9-25.29-24.71 11.54-24.62 25.58-24.62 23.75 9.33 23.75 23.18c0 2.28-.19 5.07-.19 5.07zm-23.85-18.27c-6.34 0-9.61 5-9.81 9.52h19.53a9.56 9.56 0 0 0-9.72-9.52zM1224.47 86.22h-.67a12.46 12.46 0 0 0-5.58-1.15c-7.6 0-9.52 7.11-9.52 13.36v21.06h-15.39v-47.4h15.39l-.1 6.73h.19c2.7-5.2 6.64-7.6 11.74-7.6a11 11 0 0 1 4.8.87z" fill="#0bf"/><circle cx="449.98" cy="119.22" r="81.75" fill="#0bf"/><path fill="#ccc" d="M292.04 0h3.41v238.45h-3.41z"/><path fill="#ffbc00" d="M4.82 136.85h86.77v86.77H4.82z"/><circle cx="48.21" cy="64.54" r="48.21" fill="#0bf"/><path d="M163.9 151.31a28.93 28.93 0 1 1-28.9 28.93 29 29 0 0 1 28.92-28.93m0-19.28a48.21 48.21 0 1 0 48.21 48.21A48.21 48.21 0 0 0 163.9 132z" fill="#ff7439"/><path fill="#8073b9" d="M191.164 10.01l27.266 27.265-81.805 81.806-27.266-27.266z"/></g></g></svg>