<svg width="237" height="80" viewBox="0 0 237 80" fill="none" xmlns="http://www.w3.org/2000/svg">
<path d="M87.3529 47.8323L80.7544 22.0126H73.5856L67.2473 47.6744L61.4295 22.0126H52.9097L61.9485 59.1565H70.0531L76.8593 33.4932L83.5602 59.1565H92.1312L101.17 22.0126H93.3784L87.3529 47.8323Z" fill="#111111"/>
<path d="M108.973 20.0907C108.17 20.1304 107.396 20.4048 106.748 20.88C106.099 21.3552 105.604 22.0102 105.325 22.7638C105.045 23.5175 104.992 24.3367 105.173 25.1201C105.354 25.9034 105.761 26.6163 106.344 27.1706C106.926 27.7249 107.658 28.0961 108.449 28.2383C109.241 28.3805 110.056 28.2874 110.795 27.9706C111.534 27.6538 112.164 27.1272 112.606 26.4559C113.049 25.7847 113.285 24.9984 113.285 24.1944C113.284 23.6381 113.17 23.0877 112.95 22.5766C112.73 22.0655 112.409 21.6043 112.006 21.2207C111.603 20.8372 111.127 20.5393 110.605 20.3451C110.084 20.1508 109.529 20.0643 108.973 20.0907V20.0907Z" fill="#111111"/>
<path d="M112.765 31.9868H105.284V59.156H112.765V31.9868Z" fill="#111111"/>
<path d="M118.43 37.8051H130.482L117.079 58.326V59.1565H140.871V53.3387H127.886L141.393 32.9216V31.9872H118.43V37.8051Z" fill="#111111"/>
<path d="M157.552 31.3632C155.685 31.2938 153.824 31.613 152.087 32.3006C150.349 32.9882 148.774 34.0292 147.46 35.3577C146.146 36.6861 145.123 38.273 144.455 40.0178C143.786 41.7626 143.488 43.6272 143.578 45.4934V45.9099C143.578 54.5847 149.553 59.7282 157.76 59.7282C165.189 59.7282 169.865 56.4549 170.747 50.5841H163.631C163.163 52.8701 161.449 54.3768 157.969 54.3768C153.863 54.3768 151.423 51.7799 151.215 47.2593H170.799V45.1822C170.799 35.4686 164.565 31.3632 157.552 31.3632ZM151.319 42.6367C151.89 38.7924 154.176 36.5586 157.552 36.5586C161.136 36.5586 163.215 38.532 163.475 42.6367H151.319Z" fill="#111111"/>
<path d="M194.65 19.6747V36.0385C193.818 34.521 192.569 33.2739 191.049 32.4452C189.53 31.6165 187.805 31.241 186.079 31.3632C179.274 31.3632 174.13 36.6101 174.13 45.5461V45.9614C174.13 55.0008 179.325 59.7282 185.923 59.7282C187.701 59.7424 189.45 59.2771 190.986 58.3811C192.522 57.4852 193.787 56.1918 194.65 54.637V59.1562H202.13V19.6747H194.65ZM194.857 45.7016C194.857 51.2081 192.105 53.8579 188.156 53.8579C184.416 53.8579 181.819 51.2081 181.819 45.8058V45.3905C181.819 39.9866 184.157 37.1301 188.365 37.1301C192.468 37.1301 194.857 39.8833 194.857 45.2865V45.7016Z" fill="#111111"/>
<path d="M34 64.0001H48.3376V58.4426H41.5329V21.5576H48.3376V16H34V64.0001Z" fill="#111111"/>
</svg>
