<svg width="640" height="256" viewBox="0 0 640 256" fill="none" xmlns="http://www.w3.org/2000/svg">
<g clip-path="url(#clip0_193_1511)">
<path d="M135.102 79.8799H95.0117V93.7336H135.102V79.8799Z" fill="#2D40EA"/>
<path d="M95.0117 107.71H135.102V119.112H109.724V136.153H129.585V147.187H109.724V174.649H95.0117V107.71Z" fill="#000111"/>
<path d="M81.2805 160.672H40.3325V174.526H81.2805V160.672Z" fill="#8600A1"/>
<path d="M54.9218 93.8562V132.843H81.0353V146.819H40.3325V79.8799H81.0353V93.8562H54.9218Z" fill="#000111"/>
<path d="M161.46 54.1343H13.9739V201.375H161.46V54.1343Z" stroke="#000111" stroke-width="5" stroke-miterlimit="10"/>
</g>
<path d="M214.595 155.984C205.194 155.984 197.889 153.21 192.679 147.66C187.526 142.11 184.949 134.607 184.949 125.15V124.47C184.949 115.41 187.724 107.991 193.274 102.215C198.88 96.3821 205.931 93.4657 214.425 93.4657C221.674 93.4657 227.648 95.2778 232.348 98.9021C237.105 102.526 239.823 107.793 240.503 114.702H229.035C227.733 106.547 222.891 102.47 214.51 102.47C209.13 102.47 204.826 104.452 201.598 108.416C198.427 112.323 196.842 117.646 196.842 124.385V125.065C196.842 131.917 198.399 137.268 201.514 141.119C204.628 144.913 208.989 146.81 214.595 146.81C218.899 146.81 222.41 145.735 225.128 143.583C227.903 141.374 229.573 138.175 230.14 133.984H241.182C240.333 141.119 237.53 146.584 232.773 150.378C228.073 154.116 222.013 155.984 214.595 155.984Z" fill="black"/>
<path d="M250.374 155.135V90.1528H260.653V155.135H250.374Z" fill="black"/>
<path d="M273.435 155.135V110.709H283.713V155.135H273.435ZM282.779 101.705C281.59 102.838 280.146 103.404 278.447 103.404C276.748 103.404 275.304 102.838 274.115 101.705C272.926 100.573 272.331 99.1852 272.331 97.543C272.331 95.8441 272.926 94.4283 274.115 93.2958C275.304 92.1632 276.748 91.5969 278.447 91.5969C280.146 91.5969 281.59 92.1632 282.779 93.2958C283.968 94.4283 284.563 95.8441 284.563 97.543C284.563 99.1852 283.968 100.573 282.779 101.705Z" fill="black"/>
<path d="M315.779 155.984C309.153 155.984 303.745 153.946 299.554 149.868C295.364 145.791 293.268 140.298 293.268 133.389V132.71C293.268 125.914 295.335 120.393 299.469 116.146C303.66 111.899 308.955 109.775 315.354 109.775C321.357 109.775 326.34 111.644 330.304 115.381C334.325 119.119 336.335 124.725 336.335 132.2V135.173H303.801C303.971 139.42 305.104 142.677 307.199 144.942C309.294 147.207 312.239 148.339 316.033 148.339C322.036 148.339 325.434 146.074 326.227 141.544H336.165C335.429 146.188 333.277 149.755 329.709 152.247C326.142 154.739 321.498 155.984 315.779 155.984ZM303.971 128.293H326.142C325.632 120.931 322.036 117.25 315.354 117.25C312.296 117.25 309.747 118.241 307.709 120.223C305.727 122.148 304.481 124.838 303.971 128.293Z" fill="black"/>
<path d="M345.516 155.135V110.709H355.794V117.76C356.926 115.438 358.739 113.541 361.23 112.068C363.722 110.539 366.695 109.775 370.149 109.775C374.85 109.775 378.559 111.219 381.277 114.107C383.995 116.939 385.354 121.299 385.354 127.188V155.135H375.076V128.123C375.076 124.782 374.368 122.318 372.952 120.733C371.537 119.147 369.3 118.354 366.242 118.354C363.184 118.354 360.664 119.289 358.682 121.157C356.756 122.97 355.794 125.574 355.794 128.972V155.135H345.516Z" fill="black"/>
<path d="M412.315 155.9C407.955 155.9 404.614 154.767 402.292 152.502C400.027 150.237 398.894 146.98 398.894 142.733V118.439H392.948V110.709H398.894V100.941H409.172V110.709H418.941V118.439H409.172V141.799C409.172 145.593 410.871 147.49 414.269 147.49C416.251 147.49 417.922 147.207 419.281 146.641V154.795C417.299 155.531 414.977 155.9 412.315 155.9Z" fill="black"/>
<path d="M427.193 135.683V127.188H447.579V135.683H427.193Z" fill="black"/>
<path d="M459.347 155.135V94.4H496.977V103.404H470.645V121.497H491.371V130.246H470.645V155.135H459.347Z" fill="black"/>
<path d="M505.372 155.135V110.709H515.65V155.135H505.372ZM514.716 101.705C513.527 102.838 512.083 103.404 510.384 103.404C508.685 103.404 507.241 102.838 506.052 101.705C504.863 100.573 504.268 99.1852 504.268 97.543C504.268 95.8441 504.863 94.4283 506.052 93.2958C507.241 92.1632 508.685 91.5969 510.384 91.5969C512.083 91.5969 513.527 92.1632 514.716 93.2958C515.905 94.4283 516.5 95.8441 516.5 97.543C516.5 99.1852 515.905 100.573 514.716 101.705Z" fill="black"/>
<path d="M528.178 155.135V110.709H538.457V119.034C541.401 113.088 546.215 110.086 552.897 110.03V119.628C548.084 119.685 544.459 120.648 542.024 122.517C539.646 124.385 538.457 127.557 538.457 132.03V155.135H528.178Z" fill="black"/>
<path d="M577.145 155.984C571.426 155.984 566.952 154.71 563.724 152.162C560.496 149.614 558.769 145.989 558.542 141.289H568.226C568.509 143.668 569.33 145.451 570.69 146.641C572.049 147.83 574.172 148.424 577.06 148.424C582.383 148.424 585.045 146.527 585.045 142.733C585.045 140.978 584.309 139.675 582.836 138.826C581.421 137.92 578.986 137.184 575.531 136.617C569.585 135.655 565.423 134.21 563.045 132.285C560.666 130.303 559.477 127.245 559.477 123.111C559.477 118.921 561.119 115.664 564.404 113.343C567.688 110.964 571.596 109.775 576.126 109.775C586.772 109.775 592.577 114.249 593.539 123.196H584.026C583.573 121.157 582.723 119.657 581.477 118.694C580.288 117.731 578.504 117.25 576.126 117.25C573.917 117.25 572.19 117.731 570.944 118.694C569.699 119.657 569.076 120.931 569.076 122.517C569.076 124.102 569.727 125.291 571.029 126.084C572.332 126.877 574.739 127.585 578.25 128.208C584.026 129.114 588.245 130.501 590.906 132.37C593.568 134.239 594.899 137.382 594.899 141.799C594.899 146.329 593.341 149.84 590.227 152.332C587.169 154.767 582.808 155.984 577.145 155.984Z" fill="black"/>
<path d="M619.035 155.9C614.674 155.9 611.333 154.767 609.011 152.502C606.746 150.237 605.613 146.98 605.613 142.733V118.439H599.667V110.709H605.613V100.941H615.892V110.709H625.66V118.439H615.892V141.799C615.892 145.593 617.591 147.49 620.988 147.49C622.97 147.49 624.641 147.207 626 146.641V154.795C624.018 155.531 621.696 155.9 619.035 155.9Z" fill="black"/>
<defs>
<clipPath id="clip0_193_1511">
<rect width="153.371" height="153.371" fill="white" transform="translate(11.1541 51.3145)"/>
</clipPath>
</defs>
</svg>
